<?xml version="1.0" encoding="UTF-8"?>
<svg xmlns="http://www.w3.org/2000/svg" xmlns:xlink="http://www.w3.org/1999/xlink" width="465.5pt" height="516.9pt" viewBox="0 0 465.5 516.9" version="1.1">
<defs>
<clipPath id="clip1">
  <path d="M 0 0 L 465.5 0 L 465.5 516.898438 L 0 516.898438 Z M 0 0 "/>
</clipPath>
</defs>
<g id="surface1">
<g clip-path="url(#clip1)" clip-rule="nonzero">
<path style=" stroke:none;fill-rule:evenodd;fill:rgb(0%,32.93457%,62.693787%);fill-opacity:1;" d="M 150.554688 23.773438 C 174.914063 7.960938 204.105469 -0.0390625 233.105469 0.511719 C 262.515625 0.03125 292.105469 8.363281 316.625 24.703125 C 326.015625 30.773438 334.4375 38.191406 342.507813 45.902344 C 351.886719 56.332031 361.066406 67.09375 368.046875 79.324219 C 389.285156 115.390625 396.277344 159.371094 387.945313 200.332031 C 381.734375 231.121094 366.367188 260.074219 344.085938 282.234375 C 325.046875 302.183594 300.804688 317.511719 274.035156 324.601563 C 264.644531 327.121094 255.015625 328.722656 245.324219 329.414063 C 245.324219 391.863281 245.324219 454.324219 245.324219 516.773438 C 236.996094 516.78125 228.675781 516.753906 220.355469 516.792969 C 220.265625 454.324219 220.386719 391.851563 220.285156 329.382813 C 194.515625 327.710938 169.226563 319.09375 147.894531 304.523438 C 138.074219 297.824219 128.976563 290.113281 120.796875 281.492188 C 94.945313 255.203125 79.097656 219.683594 75.214844 183.132813 C 72.355469 154.492188 76.144531 125.03125 87.257813 98.414063 C 94.457031 81.761719 104.625 66.453125 116.867188 53.074219 C 126.40625 41.582031 138.074219 31.941406 150.554688 23.773438 Z M 218.667969 27.082031 C 202.875 28.601563 187.355469 33.113281 173.324219 40.5625 C 152.617188 51.433594 135.457031 68.191406 122.207031 87.3125 C 105.027344 112.261719 97.976563 143.222656 99.527344 173.242188 C 101.265625 205.773438 114.355469 237.792969 136.796875 261.53125 C 143.566406 268.140625 150.324219 274.84375 158.117188 280.273438 C 172.054688 290.421875 188.144531 297.613281 205.035156 301.140625 C 217.484375 303.941406 230.324219 304.121094 243.027344 303.613281 C 264.554688 302.121094 285.757813 295.113281 303.605469 282.914063 C 332.207031 263.511719 354.027344 233.582031 361.765625 199.710938 C 366.796875 177.914063 366.894531 154.972656 361.925781 133.152344 C 352.554688 91.863281 324.035156 54.722656 285.246094 37.121094 C 264.507813 27.691406 241.214844 24.992188 218.664063 27.082031 Z M 147.714844 82.902344 C 165.625 61.953125 191.496094 47.691406 219.015625 44.882813 C 232.6875 43.613281 246.65625 43.941406 260.054688 47.140625 C 283.847656 52.632813 305.425781 66.722656 320.527344 85.851563 C 330.054688 97.242188 337.394531 110.433594 342.105469 124.523438 C 333.035156 124.523438 323.957031 124.53125 314.886719 124.523438 C 305.964844 104.800781 290.476563 87.742188 270.816406 78.390625 C 254.886719 70.621094 236.597656 68.824219 219.164063 71.074219 C 198.207031 73.914063 178.6875 85.113281 165.195313 101.324219 C 150.4375 118.382813 141.855469 140.710938 141.566406 163.273438 C 141.054688 183.023438 146.445313 203.050781 157.90625 219.253906 C 170.675781 237.433594 189.476563 251.972656 211.234375 257.371094 C 221.574219 260.183594 232.414063 260.132813 243.027344 259.472656 C 274.605469 256.351563 302.285156 234.253906 315.675781 205.992188 C 324.507813 206.0625 333.324219 206.003906 342.15625 206.023438 C 335.707031 225.542969 324.015625 243.09375 308.964844 257.042969 C 289.074219 276.050781 261.6875 287.132813 234.105469 286.53125 C 213.785156 287.253906 193.285156 281.921875 175.875 271.402344 C 151.945313 256.863281 133.144531 234.003906 123.804688 207.582031 C 114.867188 182.914063 114.304688 155.453125 121.234375 130.222656 C 126.027344 112.582031 135.445313 96.390625 147.714844 82.902344 Z M 191.015625 100.222656 C 203.15625 91.503906 218.1875 87.023438 233.117188 87.492188 C 248.375 87.171875 263.617188 92.28125 275.667969 101.640625 C 295.027344 116.390625 306.976563 140.414063 306.855469 164.773438 C 265.484375 164.78125 224.125 164.761719 182.757813 164.78125 C 182.566406 178.414063 187.855469 192.09375 197.605469 201.683594 C 206.40625 211.09375 218.996094 217.3125 232.046875 216.8125 C 250.597656 217.792969 267.785156 205.3125 275.667969 189.011719 C 284.824219 189.03125 293.984375 189.011719 303.15625 189.023438 C 295.054688 215.550781 272.066406 238.050781 244.144531 242.144531 C 231.464844 243.703125 218.226563 243.050781 206.277344 238.191406 C 188.355469 230.992188 173.367188 216.703125 165.265625 199.171875 C 157.816406 183.632813 156.125 165.652344 159.375 148.8125 C 163.035156 129.300781 175.003906 111.761719 191.015625 100.222656 Z M 216.90625 115.832031 C 205.625 119.371094 196.695313 127.914063 190.515625 137.753906 C 218.386719 137.78125 246.257813 137.773438 274.136719 137.753906 C 269.214844 130.0625 262.804688 123.042969 254.644531 118.753906 C 243.195313 112.601563 229.175781 111.882813 216.90625 115.832031 Z M 20.496094 186.5625 C 21.054688 186.542969 22.1875 186.484375 22.746094 186.460938 C 27.386719 191.171875 30.574219 197.042969 33.246094 203.03125 C 39.996094 219.691406 44.195313 237.382813 45.476563 255.324219 C 45.757813 258.511719 45.4375 261.710938 44.835938 264.851563 C 41.144531 263.921875 38.996094 260.460938 36.804688 257.644531 C 29.835938 247.132813 25.515625 235.074219 22.585938 222.863281 C 19.6875 211.070313 17.496094 198.574219 20.496094 186.5625 Z M 441.726563 187.761719 C 442.507813 186.632813 443.957031 186.613281 445.15625 186.242188 C 449.105469 203.390625 444.195313 220.84375 438.894531 237.113281 C 434.945313 247.261719 430.816406 258.300781 421.855469 265.113281 C 419.347656 262.042969 420.144531 257.832031 420.277344 254.183594 C 421.457031 239.664063 424.484375 225.28125 429.234375 211.511719 C 432.296875 203.09375 435.855469 194.632813 441.726563 187.761719 Z M 54.804688 250.292969 C 55.035156 243.511719 55.566406 236.371094 58.984375 230.351563 C 64.726563 235.773438 66.9375 243.773438 69.207031 251.09375 C 73.226563 266.84375 75.195313 283.140625 74.765625 299.402344 C 74.414063 303.800781 74.605469 308.542969 72.175781 312.441406 C 67.796875 308.113281 65.054688 302.472656 62.777344 296.832031 C 57.117188 282.03125 54.554688 266.113281 54.804688 250.292969 Z M 404.324219 232.691406 C 404.90625 231.582031 405.835938 230.984375 407.097656 230.890625 C 409.617188 235.953125 410.335938 241.691406 410.746094 247.261719 C 411.40625 263.832031 409.003906 280.613281 403.136719 296.152344 C 400.914063 302.003906 397.964844 307.632813 393.804688 312.351563 C 390.964844 309.351563 391.445313 304.933594 390.984375 301.140625 C 390.316406 285.832031 391.984375 270.460938 395.367188 255.53125 C 397.167969 247.542969 399.734375 239.550781 404.324219 232.691406 Z M 0.507813 242.703125 C 0.0273438 241.261719 0.464844 239.800781 0.726563 238.382813 C 12.4375 242.082031 20.90625 251.582031 28.925781 260.382813 C 36.246094 269.253906 43.144531 278.59375 48.484375 288.8125 C 50.367188 292.550781 52.324219 296.390625 52.675781 300.640625 C 49.136719 300.863281 45.976563 299.203125 43.117188 297.324219 C 33.804688 291.511719 26.066406 283.601563 18.945313 275.332031 C 11.054688 265.621094 3.335938 255.121094 0.507813 242.703125 Z M 449.347656 247.5625 C 453.757813 243.863281 458.566406 240.382813 464.125 238.664063 C 464.496094 239.03125 465.214844 239.78125 465.585938 240.152344 C 463.695313 251.851563 456.847656 261.921875 449.957031 271.273438 C 442.566406 281.0625 433.804688 289.933594 423.464844 296.601563 C 420.246094 298.632813 416.824219 300.890625 412.835938 300.582031 C 413.65625 295.324219 416.1875 290.5625 418.707031 285.941406 C 426.824219 271.652344 437.097656 258.542969 449.347656 247.5625 Z M 86.097656 271.132813 C 87.785156 271.023438 88.617188 272.550781 89.503906 273.710938 C 94.6875 280.972656 97.054688 289.710938 99.4375 298.183594 C 102.9375 312.5625 105.054688 327.402344 104.1875 342.230469 C 103.964844 345.351563 103.394531 348.441406 102.566406 351.453125 C 98.507813 349.722656 96.574219 345.523438 94.515625 341.914063 C 88.6875 330.3125 85.554688 317.53125 83.847656 304.722656 C 82.847656 295.574219 82.257813 286.242188 84.007813 277.140625 C 84.4375 275.0625 84.855469 272.902344 86.097656 271.132813 Z M 375.835938 274.140625 C 376.894531 272.84375 377.804688 270.722656 379.855469 271.261719 C 382.355469 276.882813 382.785156 283.183594 382.847656 289.253906 C 382.496094 306.953125 379.277344 324.84375 371.644531 340.902344 C 369.457031 344.851563 367.457031 349.542969 363.066406 351.472656 C 360.976563 344.261719 361.195313 336.691406 361.394531 329.273438 C 361.996094 318.503906 363.796875 307.824219 366.425781 297.371094 C 368.726563 289.34375 371.027344 281.09375 375.835938 274.140625 Z M 17.914063 301.121094 C 26.277344 300.511719 34.574219 302.824219 42.144531 306.203125 C 56.105469 312.363281 69.257813 320.503906 80.515625 330.84375 C 82.667969 332.914063 85.207031 334.984375 85.535156 338.183594 C 79.15625 338.542969 72.785156 337.441406 66.675781 335.722656 C 52.90625 331.09375 39.816406 324.09375 28.894531 314.472656 C 24.515625 310.683594 20.714844 306.203125 17.914063 301.121094 Z M 423.476563 308.761719 C 431.355469 304.691406 440.285156 302.511719 449.175781 303.09375 C 442.246094 315.683594 429.886719 323.902344 417.695313 330.8125 C 405.695313 337.222656 392.4375 342.644531 378.566406 341.640625 C 379.796875 337.101563 383.804688 334.253906 387.035156 331.164063 C 397.9375 321.902344 410.214844 314.171875 423.476563 308.761719 Z M 45.507813 347.003906 C 64.917969 350.941406 84.847656 351.730469 104.125 356.351563 C 129.726563 362.28125 154.207031 373.992188 173.964844 391.433594 C 182.835938 399.640625 190.894531 409.582031 193.875 421.53125 C 195.816406 431.324219 195.234375 441.363281 195.324219 451.292969 C 195.484375 473.132813 194.785156 494.960938 194.277344 516.792969 C 184.6875 516.753906 175.117188 516.042969 165.527344 515.992188 C 165.625 485.371094 171.226563 454.523438 165.796875 424.074219 C 165.007813 417.742188 161.195313 412.011719 156.007813 408.402344 C 150.625 404.601563 144.164063 402.824219 137.824219 401.414063 C 120.125 397.261719 101.894531 394.53125 85.15625 387.121094 C 67.695313 378.953125 54.886719 363.453125 45.507813 347.003906 Z M 350.125 359.414063 C 372.757813 352.101563 396.765625 351.632813 419.9375 346.980469 C 410.824219 362.871094 398.625 377.8125 382.046875 386.28125 C 363.066406 395.132813 342.046875 397.683594 321.925781 402.824219 C 314.347656 404.941406 306.734375 408.914063 302.515625 415.824219 C 299.375 420.664063 299.386719 426.621094 298.40625 432.121094 C 295.136719 460.050781 299.824219 488.03125 299.847656 516.003906 C 290.265625 516.03125 280.707031 516.773438 271.125 516.800781 C 270.535156 493.273438 269.875 469.753906 270.074219 446.222656 C 270.175781 435.300781 269.414063 423.730469 274.394531 413.652344 C 280.035156 401.992188 289.285156 392.441406 299.546875 384.722656 C 314.785156 373.480469 331.875 364.601563 350.125 359.414063 Z M 350.125 359.414063 "/>
</g>
</g>
</svg>
